# xmcd
# 
# Track frame offsets:
#     150
#     19305
#     37662
#     56992
#     76348
#     98757
#     116736
#     136362
#     152906
#     175735
#     195092
#     215631
#     238679
# 
# Disc length: 3467
# 
# Revision: 0
# Processed by: cddbd v1.5.2PL0 Copyright (c) Steve Scherf et al.
# Submitted via: fre:ac v1.0.31
# 
DISCID=a90d890d
DTITLE=しおり - Partner
DYEAR=2012
DGENRE=
TTITLE0=You and Me
TTITLE1=あいのうた
TTITLE2=5文字の言葉
TTITLE3=一 歩
TTITLE4=Smile〜君は一人じゃない〜
TTITLE5=君の声が聞こえたんだ （with かりゆし58）
TTITLE6=ずっと君と （with ディアマンテス）
TTITLE7=Oh my Baby
TTITLE8=二人の約束
TTITLE9=sweety
TTITLE10=僕らの海
TTITLE11=永遠
TTITLE12=Smile 〜君は一人じゃない〜 （「花のしおり」バージョン） （Special Track）
EXTD=
EXTT0=
EXTT1=
EXTT2=
EXTT3=
EXTT4=
EXTT5=
EXTT6=
EXTT7=
EXTT8=
EXTT9=
EXTT10=
EXTT11=
EXTT12=
PLAYORDER=
